<svg width="24" height="25" viewBox="0 0 24 25" fill="none" xmlns="http://www.w3.org/2000/svg">
<path fill-rule="evenodd" clip-rule="evenodd" d="M3.66667 22.0556L2 23.7222V1.5L3.66667 3.16667L5.33333 1.5L7 3.16667L8.66667 1.5L10.3333 3.16667L12 1.5L13.6667 3.16667L15.3333 1.5L17 3.16667L18.6667 1.5L20.3333 3.16667L22 1.5V23.7222L20.3333 22.0556L18.6667 23.7222L17 22.0556L15.3333 23.7222L13.6667 22.0556L12 23.7222L10.3333 22.0556L8.66667 23.7222L7 22.0556L5.33333 23.7222L3.66667 22.0556ZM18.6667 7.05556V9.27778H5.33333V7.05556H18.6667ZM5.33333 11.5V13.7222H18.6667V11.5H5.33333ZM5.33333 15.9444V18.1667H18.6667V15.9444H5.33333Z" fill="black"/>
</svg>
