<svg width="24" height="25" viewBox="0 0 24 25" fill="none" xmlns="http://www.w3.org/2000/svg">
<path fill-rule="evenodd" clip-rule="evenodd" d="M19.7778 2.64876H15.1333C14.6667 1.40248 13.4444 0.5 12 0.5C10.5556 0.5 9.33333 1.40248 8.86667 2.64876H4.22222C3 2.64876 2 3.6157 2 4.79752V21.9876C2 23.1694 3 24.1364 4.22222 24.1364H19.7778C21 24.1364 22 23.1694 22 21.9876V4.79752C22 3.6157 21 2.64876 19.7778 2.64876ZM12 2.64876C12.6111 2.64876 13.1111 3.13223 13.1111 3.72314C13.1111 4.31405 12.6111 4.79752 12 4.79752C11.3889 4.79752 10.8889 4.31405 10.8889 3.72314C10.8889 3.13223 11.3889 2.64876 12 2.64876ZM4.22222 4.79752V21.9876H19.7778V4.79752H17.5556V8.02066H6.44444V4.79752H4.22222Z" fill="black"/>
</svg>
